<mxfile host="app.diagrams.net" modified="2022-06-26T01:54:53.264Z" agent="5.0 (Windows NT 10.0; Win64; x64) AppleWebKit/537.36 (KHTML, like Gecko) Chrome/102.0.0.0 Safari/537.36" etag="H_199Ik1qcF5QRJ5wIQG" version="20.0.3" type="github">
  <diagram id="C5RBs43oDa-KdzZeNtuy" name="Page-1">
    <mxGraphModel dx="865" dy="486" grid="1" gridSize="10" guides="1" tooltips="1" connect="1" arrows="1" fold="1" page="1" pageScale="1" pageWidth="827" pageHeight="1169" math="0" shadow="0">
      <root>
        <mxCell id="WIyWlLk6GJQsqaUBKTNV-0" />
        <mxCell id="WIyWlLk6GJQsqaUBKTNV-1" parent="WIyWlLk6GJQsqaUBKTNV-0" />
        <mxCell id="yTkSbZvcme8-GNKJcW5z-0" value="Calculator" style="swimlane;fontStyle=1;align=center;verticalAlign=top;childLayout=stackLayout;horizontal=1;startSize=26;horizontalStack=0;resizeParent=1;resizeParentMax=0;resizeLast=0;collapsible=1;marginBottom=0;" vertex="1" parent="WIyWlLk6GJQsqaUBKTNV-1">
          <mxGeometry x="234" y="180" width="360" height="544" as="geometry" />
        </mxCell>
        <mxCell id="yTkSbZvcme8-GNKJcW5z-1" value="op1 : int&#xa;op2: int&#xa;opResult : float" style="text;strokeColor=none;fillColor=none;align=left;verticalAlign=top;spacingLeft=4;spacingRight=4;overflow=hidden;rotatable=0;points=[[0,0.5],[1,0.5]];portConstraint=eastwest;" vertex="1" parent="yTkSbZvcme8-GNKJcW5z-0">
          <mxGeometry y="26" width="360" height="74" as="geometry" />
        </mxCell>
        <mxCell id="yTkSbZvcme8-GNKJcW5z-3" value="Calculator()&#xa;Calculator(opr1 : int , opr2 : int)&#xa;setOp1(op : int) : void&#xa;setOp2(op : int) : void&#xa;getOp1() : int&#xa;getOp2() : int&#xa;&#xa;&#xa;" style="text;strokeColor=none;fillColor=none;align=left;verticalAlign=top;spacingLeft=4;spacingRight=4;overflow=hidden;rotatable=0;points=[[0,0.5],[1,0.5]];portConstraint=eastwest;" vertex="1" parent="yTkSbZvcme8-GNKJcW5z-0">
          <mxGeometry y="100" width="360" height="108" as="geometry" />
        </mxCell>
        <mxCell id="yTkSbZvcme8-GNKJcW5z-2" value="" style="line;strokeWidth=1;fillColor=none;align=left;verticalAlign=middle;spacingTop=-1;spacingLeft=3;spacingRight=3;rotatable=0;labelPosition=right;points=[];portConstraint=eastwest;" vertex="1" parent="yTkSbZvcme8-GNKJcW5z-0">
          <mxGeometry y="208" width="360" height="336" as="geometry" />
        </mxCell>
      </root>
    </mxGraphModel>
  </diagram>
</mxfile>
